<svg id="Capa_1" data-name="Capa 1" xmlns="http://www.w3.org/2000/svg" viewBox="0 0 790 790"><defs><style>.cls-1{fill:#ee7900;}.cls-2{fill:#fefefe;}.cls-3{fill:#fefefd;}</style></defs><path class="cls-1" d="M795,372.4V429c-1.66.61-1.25,2.1-1.36,3.33-1.16,12.66-2.7,25.27-5,37.79-17.66,95.17-63.5,174.27-138.4,235.18-91.9,74.73-197.55,102.44-314.58,84.31C265,778.69,202,749.56,147.36,703.43Q29.94,604.22,8.59,451.46a383.33,383.33,0,0,1,5-132.8c15.93-75,50.62-140.27,104.44-194.89Q212.76,27.59,346.83,8.68c8.09-1.13,16.42-.78,24.24-3.68h56.61c1.05,2.14,3.07,1.21,4.65,1.34A385.11,385.11,0,0,1,499,17.56c75.68,20,140.3,58.65,192.94,116.59q82.73,91.07,99.49,213.34C792.53,355.8,792.18,364.34,795,372.4ZM459.35,463.64c0-56.38-.07-112.76.1-169.14,0-5-1-6.63-6.37-6.58-31.14.28-62.29.14-93.43.14-20.18,0-40.36.07-60.53-.07-3.68,0-5.6.47-5.48,4.91.31,10.74.23,21.5,0,32.24-.07,3.81,1.36,4.89,5,4.84,11.62-.18,23.26.22,34.87-.19,5.53-.19,7.43,1,7.36,7.07-.35,32.24-.16,64.49-.16,96.74,0,66-.11,132.06.16,198.09,0,6.57-1.85,8.07-8,7.78-11.16-.51-22.37,0-33.55-.23-4.23-.09-5.79,1.08-5.65,5.52.3,9.86.35,19.75,0,29.61-.19,5.08,1.19,6.79,6.51,6.69,17.32-.34,34.65-.13,52-.13,49.13,0,98.26-.08,147.38.12,5.44,0,7.21-1.37,7-6.92-.46-9.85-.29-19.74,0-29.61.1-4-1.18-5.34-5.22-5.27-11.62.22-23.26-.29-34.86.23-6,.28-7.13-1.76-7.11-7.37C459.43,576,459.35,519.8,459.35,463.64ZM401.92,119.18c-26.31,0-40.8,7-54.12,25.5-15.29,21.21-13.49,52.73,4.25,71.6a60.91,60.91,0,0,0,43,19.8c23.28,1.12,43.21-4.6,57.26-25,13.57-19.7,13.57-51.72-.8-68.43C438,127,421.25,118.41,401.92,119.18Z" transform="translate(-5 -5)"/><path class="cls-2" d="M459.35,463.64c0,56.16.08,112.31-.13,168.47,0,5.61,1.07,7.65,7.11,7.37,11.6-.52,23.24,0,34.86-.23,4-.07,5.32,1.26,5.22,5.27-.24,9.87-.41,19.76,0,29.61.25,5.55-1.52,6.94-7,6.92-49.12-.2-98.25-.12-147.38-.12-17.33,0-34.66-.21-52,.13-5.32.1-6.7-1.61-6.51-6.69.37-9.86.32-19.75,0-29.61-.14-4.44,1.42-5.61,5.65-5.52,11.18.26,22.39-.28,33.55.23,6.19.29,8.07-1.21,8-7.78-.27-66-.16-132.06-.16-198.09,0-32.25-.19-64.5.16-96.74.07-6.09-1.83-7.26-7.36-7.07-11.61.41-23.25,0-34.87.19-3.63,0-5.06-1-5-4.84.2-10.74.28-21.5,0-32.24-.12-4.44,1.8-4.93,5.48-4.91,20.17.14,40.35.07,60.53.07,31.14,0,62.29.14,93.43-.14,5.35-.05,6.39,1.6,6.37,6.58C459.28,350.88,459.35,407.26,459.35,463.64Z" transform="translate(-5 -5)"/><path class="cls-3" d="M401.92,119.18c19.33-.77,36.1,7.82,49.58,23.49,14.37,16.71,14.37,48.73.8,68.43-14.05,20.38-34,26.1-57.26,25a60.91,60.91,0,0,1-43-19.8c-17.74-18.87-19.54-50.39-4.25-71.6C361.12,126.19,375.61,119.14,401.92,119.18Z" transform="translate(-5 -5)"/></svg>