<?xml version="1.0" encoding="utf-8"?>
<!-- Generator: Adobe Illustrator 24.1.1, SVG Export Plug-In . SVG Version: 6.00 Build 0)  -->
<svg version="1.1" id="Capa_1" xmlns="http://www.w3.org/2000/svg" xmlns:xlink="http://www.w3.org/1999/xlink" x="0px" y="0px"
	 viewBox="0 0 800 800" style="enable-background:new 0 0 800 800;" xml:space="preserve">
<style type="text/css">
	.st0{fill:#6C40D3;}
</style>
<g>
	<path class="st0" d="M5.26,398.43c-0.66-9.14,0.03-19.59,0.9-29.98c1.78-21.22,5.05-42.25,10.24-62.93
		c15.2-60.59,42.92-114.82,83.76-162.25c49.41-57.39,110.3-97.59,182.69-120.45c23.14-7.31,46.79-12.58,70.93-14.95
		c19.83-1.95,39.74-3.46,59.74-2.61c7.24,0.31,60.29,6.52,71.83,9.23c19.05,4.47,37.86,9.67,56.13,16.78
		c42.86,16.68,81.75,39.87,116.42,70c54.38,47.25,93.24,104.9,116.38,172.99c8.03,23.62,13.72,47.79,16.87,72.55
		c3.36,26.36,5.07,52.81,2.85,79.32c-1.78,21.32-4.81,42.43-9.58,63.4c-12.14,53.3-34.61,101.78-67.29,145.46
		C662.89,707.46,592,756.29,504.54,780.85c-20.52,5.76-41.45,9.68-62.73,11.87c-18.7,1.92-37.43,2.76-56.16,2.02
		c-63.42-2.51-122.96-18.99-178.36-50c-35.58-19.91-67.31-44.73-95.1-74.45c-47.59-50.9-79.83-110.1-96.18-177.8
		c-3.89-16.11-6.71-32.37-8.51-48.85C5.9,429.03,4.94,414.43,5.26,398.43z M397.71,41.07c-7.59,0.56-17.03,0.61-26.46,1.31
		c-20.25,1.51-40.21,4.73-59.82,9.83c-73.13,18.98-134.57,56.91-183.66,114.12C75.85,226.81,47.72,297.2,41.98,376.43
		c-1.79,24.65-0.64,49.27,2.82,73.8c4.01,28.46,11.19,56.05,21.86,82.73c21.99,54.97,55.57,101.72,100.63,140.29
		c26.22,22.45,55.18,40.61,86.71,54.71c28.44,12.72,58.14,21.3,88.86,26.47c6.19,1.04,12.32,2.6,18.55,3.09
		c5.44,0.43,10.91,0.86,16.42,0.87c19.33,0.02,38.65,1.01,57.96-1.34c13.44-1.63,26.83-3.42,40.06-6.31
		c69.93-15.24,129.81-48.57,180.06-99.2c14.4-14.51,27.33-30.26,38.94-47.07c38.78-56.19,59.6-118.49,63.33-186.44
		c0.74-13.47,0.37-27.01-0.43-40.54c-1.25-21.23-4.29-42.14-9.45-62.73C726.49,227.78,679,158,605.66,106.11
		C544.07,62.54,474.95,41.67,397.71,41.07z"/>
	<path class="st0" d="M381.38,529.15c-0.16-24.46,2.49-46.53,11.09-67.58c8.22-20.11,21.83-35.96,39.18-48.86
		c14.12-10.49,29.44-19.11,44.56-27.98c30.41-17.82,47.25-44.72,54.38-78.41c1.92-9.05,3.83-18.1,3.86-27.42
		c0.06-20.7-6.73-39.15-19.24-55.41c-21.93-28.5-51.36-45.24-86.29-52.51c-38.74-8.06-75-1.63-107.78,20.77
		c-30.37,20.75-48.46,49.59-54.53,85.81c-0.91,5.46-0.92,11.02-1.12,16.55c-0.4,10.93-5.92,17.65-15.24,19.43
		c-10.84,2.07-21.18-6.78-21.15-17.57c0.07-28.87,7.13-55.95,22-80.75c24.46-40.77,60.16-66.83,106.34-78.33
		c6.41-1.6,13-3.01,19.86-3.36c9.27-0.47,18.45-2.52,27.85-1.99c43.94,2.51,83.18,16.84,116.45,46.05
		c22.88,20.09,39,44.41,45.98,74.26c4.37,18.68,3.67,37.36-0.31,56.05c-5.44,25.6-15.07,49.29-31.34,70.08
		c-13.97,17.85-31.69,31.29-50.73,43.22c-11.9,7.46-24.17,14.35-35.29,23.04c-16.46,12.85-25.74,29.81-29.54,50
		c-3.39,17.99-3.32,36.1-1.71,54.25c0.84,9.46-7.02,18.69-16.55,19.54c-10.04,0.89-19.33-6.86-19.84-16.88
		C381.86,543.19,380.82,535.23,381.38,529.15z"/>
	<path class="st0" d="M401.63,671.15c-18.79,1.35-35.12-13.24-37.22-30.55c-2.96-24.41,15.25-38.23,28.24-40.06
		c27.67-3.9,41.99,15,43.12,32.85C437.07,653.89,420.76,670.78,401.63,671.15z"/>
</g>
</svg>
