<?xml version="1.0" encoding="utf-8"?>
<!-- Generator: Adobe Illustrator 24.1.1, SVG Export Plug-In . SVG Version: 6.00 Build 0)  -->
<svg version="1.1" id="Capa_1" xmlns="http://www.w3.org/2000/svg" xmlns:xlink="http://www.w3.org/1999/xlink" x="0px" y="0px"
	 viewBox="0 0 800 800" style="enable-background:new 0 0 800 800;" xml:space="preserve">
<style type="text/css">
	.st0{fill:#A4D62B;}
	.st1{fill:#F9F2F3;}
</style>
<g>
	<circle class="st0" cx="400" cy="400" r="395"/>
	<path class="st1" d="M453,444.8c0,43.5,0,87,0,130.5c0,8.9,1.4,10.3,10.2,10.4c9.8,0,19.6-0.1,29.3,0c11.4,0.1,15.2,4,15.2,15.2
		c0,8.9-0.4,17.9,0.1,26.8c0.5,7.8-5.7,12.2-11.5,12.9c-1.5,0.2-3,0.1-4.5,0.1c-57.2,0-114.3,0-171.5,0c-2.9,0-5.8,0.1-8.4-1.2
		c-4.6-2.2-7.8-5.2-7.6-11.1c0.4-9.8,0.1-19.6,0.1-29.3c0-8.4,4-12.9,12.7-13.3c9.1-0.4,18.2-0.1,27.3-0.1c14,0,14.1,0,14.1-14.1
		c0-68.6,0-137.3,0-205.9c0-7.6-1.9-9.4-9.6-9.4c-9.9,0-19.9,0.1-29.8-0.1c-11.8-0.1-16.9-5.4-16.9-17.1c0-8.3,0-16.5,0-24.8
		c0-10.4,5.7-16.2,16.2-16.3c13.1-0.1,26.3,0,39.5,0c25.8,0,51.6,0,77.4,0c12.6,0,17.7,5.2,17.7,17.7C453,358.8,453,401.8,453,444.8
		z"/>
	<path class="st1" d="M462.1,212.2c-0.2,13.2-5.5,24.1-14.9,33.2c-23,22.2-62.9,22.3-86,0.2c-20.1-19.2-20.3-47.3-0.4-66.8
		c25.9-25.5,72.1-21.6,93.2,7.8C459.3,194,462.1,202.9,462.1,212.2z"/>
	<path class="st1" d="M187.6,141.2c6.5,9.7,12.9,19.5,19.7,29c3.7,5.2-1.1,5.9-3.3,8c-2.7,2.6-4.5,1.5-6.3-1.4
		c-8.5-13.9-17.2-27.8-25.9-41.6c-1.9-3-1.4-4.9,1.4-6.6c1.1-0.7,2.2-1.5,3.2-2.4c3.2-2.8,6-3.2,9.5,0.1
		c8.1,7.6,16.6,14.7,24.9,22.1c0.2,0.6,0.4,1.1,0.6,1.7c0.9-0.6,0.6-1.3,0.2-1.9c-4.6-9.9-9-19.9-13.7-29.8
		c-1.8-3.7-1.8-6.3,2.1-8.3c1.3-0.7,2.6-1.6,3.7-2.6c2.7-2.3,4.8-2,7.3,0.8c10.7,12.1,21.6,24.1,32.3,36.2c1.5,1.7,4.3,3.3,0.8,6.1
		c-5.6,4.5-6.9,4.9-9.9,1.1c-7-8.6-14-17.3-20.9-25.9c-0.5-0.6-0.8-1.5-2.3-1.2c4,9.1,7.9,18.2,12,27.2c1.3,2.9,2.1,5.3-1.5,7.2
		c-3.3,1.8-5.7,5.9-10.4,1.6c-7.3-6.8-15.2-13-22.8-19.5c-0.3-0.3-0.7-0.6-1-1c-0.3-0.6-0.7-0.7-1.1-0.2c0.3,0.2,0.5,0.4,0.8,0.5
		C187,140.5,187.3,140.8,187.6,141.2z"/>
	<path class="st1" d="M96.8,294.5c-10.9-3.4-21.8-6.9-32.8-10.2c-3.2-1-4.6-2.3-3.2-5.8c1.2-3.1,1.8-6,6.5-4.5
		c15.7,5.2,31.5,10,47.3,14.8c3.9,1.2,4.8,3.1,3.3,7c-3.1,8.4-2.9,7.9-11.9,9c-12.8,1.5-25.6,0.4-36.1,1.1
		c10.3,3.1,22.7,6.8,35.2,10.6c2.4,0.7,5.8,1,4,5.2c-1.3,3.1-1.1,7.3-6.8,5.4c-12-4.1-24.2-7.7-36.3-11.5c-4.2-1.3-8.3-2.7-12.5-3.9
		c-2.4-0.7-3.2-2.2-2.4-4.6c0.7-1.9,1.4-3.8,1.9-5.7c0.9-3.7,3.1-5.1,6.9-5.2c12.1-0.2,24.2-0.7,36.3-1.1c0.8,0.7,2.3,0.8,2.4,0.2
		C99,294.4,97.6,294.7,96.8,294.5z"/>
	<path class="st1" d="M569.4,682.6c1.8,8.4,3.4,16.8,5.4,25c0.8,3.4-0.2,5.1-3.3,6.2c-3.1,1.1-6.1,4-9.3-0.3
		c-4.5-6.1-9.3-12-14-17.9c-1-1.2-1.5-3.1-4.1-3c4.1,9.6,7.9,19.2,12.3,28.6c2.7,5.6-1.4,6.1-4.6,7.8c-3.8,2.1-4.7-0.6-5.7-3.2
		c-5.2-14.1-10.3-28.2-15.6-42.2c-1.3-3.5-0.7-5.4,2.8-6.6c1.4-0.5,2.9-1.1,4.2-1.8c3.3-2,5.5-1,7.7,1.9c6.5,8.8,13.1,17.5,20.3,27
		c-2.5-10.7-4.9-20.4-7-30.2c-0.5-2.4-2.9-5.4-0.2-7.5c2.9-2.3,6.4-3.7,10-4.4c1.8-0.4,2.6,1.2,3.4,2.5c7.9,13.5,15.9,27,23.8,40.5
		c1.2,2,1.9,4-1,4.8c-2.9,0.8-6.2,5.3-9,0.1c-4.3-7.8-8.2-15.9-12.4-23.7C572.4,684.8,572.4,682.4,569.4,682.6z"/>
	<path class="st1" d="M424,69.1c0.4,12.2-1.9,24.2-2.7,36.3c-0.2,3.7-1.5,5.6-5.7,4.8c-3.5-0.6-6.4-0.6-5.7-5.8
		c1.9-15.2,3.3-30.5,4.6-45.8c0.4-5.1,2.4-6.5,7.4-5.9c8.8,1.1,8.9,0.8,11.1,9.2c2.9,11.2,6.5,22.3,8.5,35.2
		c1.2-12.8,2.3-24.1,3.4-35.5c0.6-6.5,1.2-6.8,7.4-6.1c3.4,0.4,4.2,1.9,3.9,5c-1.7,16.1-3.4,32.2-4.9,48.3c-0.3,3.6-2,4.4-5.3,4.1
		c-10-0.8-10.1-0.6-12.8-10.2C430,91.6,426.6,80.5,424,69.1z"/>
	<path class="st1" d="M380.4,711.4c0.2,11.8-1.6,23.3-2.3,34.9c-0.3,4.8-3.1,4.2-6.2,4.1c-3.2-0.1-4.9-1-4.5-4.8
		c1.5-15,2.8-30.1,3.9-45.2c0.2-3,1.3-3.8,4.3-3.9c10.6-0.1,10.7-0.3,13.5,9.9c2.6,9.3,5.7,18.5,8.1,28c1-10.5,2.1-21,2.8-31.5
		c0.3-3.9,1.5-5.3,5.6-4.9c3.8,0.4,5.3,1.5,4.9,5.5c-1.5,15.1-2.8,30.1-4,45.2c-0.2,2.8-1.5,3.8-4,4.1c-7.5,1-10.8-1.1-12.8-8.5
		C386.7,733.4,382.1,722.7,380.4,711.4z"/>
	<path class="st1" d="M726.8,565.3c-9.7-5.9-19.3-12.1-29.1-17.7c-4.3-2.4-4.3-4.6-1.6-8.2c2-2.7,3.5-2.9,6.2-1.2
		c13.3,8.2,26.7,16.3,40.2,24.3c3.1,1.8,3.4,3.5,1.4,6.4c-6.3,9.6-4,7.3-13.9,6.1c-11-1.3-21.7-4.3-32.6-6.6
		c10.2,5.1,19.6,11.6,29.5,17.1c2.7,1.5,4.4,3.1,2,6.3c-1.9,2.6-3,5.6-7.3,2.8c-12.3-7.7-24.9-14.8-37.2-22.5
		c-2.2-1.4-6.4-2.9-5-6.8c2.5-7,6-9.4,11.2-8.2c12.1,2.8,24.6,4.1,36.4,8.3c0.2-0.2,0.3-0.4,0.5-0.6c0,0.2,0,0.5,0,0.7
		C727.2,565.5,727,565.4,726.8,565.3z"/>
	<path class="st1" d="M166.7,173.7c11.1-1.9,19.8,4.4,29.3,7.5c0.7,0.2,1.7,1.4,1.6,1.7c-1.3,3.4-4.7,5-7,7.6
		c-1.2,1.4-2.5,1.2-4.4,0.2c-4.6-2.5-9.5-4.4-14.2-6.6c-2.1-0.9-4.2-0.8-6.4-0.7c-2.3,0.1-4.8,0.6-5.7,2.6c-1,2.3,1.8,3,3.2,4.3
		c3.6,3.3,7,6.9,10.6,10.1c2.4,2.1,4.1,3.9,0.9,6.8c-2.9,2.6-4.8,5.4-9,1.3c-7.4-7.4-15.3-14.2-23-21.3c-4.5-4.1-8.9-8.3-13.4-12.3
		c-1.9-1.7-2.4-3.2-0.4-5c4.6-4.5,8.9-9.2,13.8-13.3c7.4-6.1,16.5-5.1,22.4,2.1C168.5,162.8,168.9,166.4,166.7,173.7z M151,164.3
		c-2.6,0.1-8.9,4.9-8.6,6.7c0.2,1.5,9.4,8.7,10.8,8.2c3.6-1,5.5-3.7,5.6-7.4C158.9,167.9,154.9,164.2,151,164.3z"/>
	<path class="st1" d="M598.7,145.8c2.6,4.6,2.1,8.9,0.9,13.2c-0.9,3.2-1.4,6.6-2.5,9.8c-0.9,2.6-0.2,6.9-3.2,7.3
		c-3.2,0.4-5.8-2.9-8.4-5c-1.7-1.4-1.1-3.3-0.5-5.2c1.4-4.2,2.7-8.3,4-12.5c0.7-2.4,0.9-5,0.3-7.5c-0.5-2.1-1.6-4-3.6-4.6
		c-2.3-0.8-2.9,1.8-3.9,3.1c-3.2,4.1-6.4,8.2-9.3,12.6c-2.9,4.3-5.4,1.8-7.9-0.1c-2.4-1.9-4.2-3.7-1.4-7.3
		c9.7-12.5,19.1-25.3,28.4-38.1c2.5-3.5,4.6-4.2,8.1-1.4c3.5,2.8,7.5,5.2,11.2,7.9c7.7,5.6,10.1,11.9,7.3,18.6
		C614.9,144.1,609.1,147.1,598.7,145.8z M606.7,130.2c-0.4-4.1-3.7-5.8-6.7-7.4c-3-1.7-3.2,2-4.5,3.3c-1.6,1.6-2.9,3.7-4.2,5.6
		c-0.6,0.8-1.6,1.7-0.6,2.6c2.8,2.3,5.8,4.9,9.9,3.7C604.3,136.8,606.5,134.2,606.7,130.2z"/>
	<path class="st1" d="M134.2,243.3c-13-2.6-25.6-9.8-33.6-23.7c-3.8-6.6-1.9-13.1,2.5-18.9c4.5-6,10.7-9.1,18.1-7.6
		c13.1,2.5,23.7,9.5,31.8,19.9c4.5,5.8,5.2,12.3,1.6,19C150.6,239.3,144.3,243.3,134.2,243.3z M116.4,203.1
		c-3.1,0.3-5.5,1.5-6.9,4.4c-1.7,3.4-0.6,6.4,1.6,8.8c6.4,6.9,14.2,11.9,22.7,15.6c5.3,2.3,9.1,1.2,11.5-2.7
		c2.3-3.8,1.5-7.5-2.9-11.5c-5.7-5.2-12.2-9.5-19.2-12.8C121,203.8,118.7,203.4,116.4,203.1z"/>
	<path class="st1" d="M543.3,143.3c-7.3-0.5-14.1-3.4-19.2-9.2c-4.6-5.2-4.8-11.5-1.8-17.5c5.5-11.4,11.2-22.6,17-33.8
		c2.8-5.3,6-0.8,8.8,0c3.3,0.9,3.2,3.2,1.7,5.9c-5.4,10.4-10.9,20.7-16.1,31.2c-3.2,6.5-2,9.9,3.6,12.3c5.1,2.2,8.7,0.9,11.3-4.2
		c5.5-10.6,11.1-21.1,16.1-31.9c2.6-5.7,5.5-2.5,8.7-1.5c4,1.3,3.8,3.4,2,6.8c-5.5,10.4-10.6,21-16,31.4
		C556.1,139.2,551.1,143,543.3,143.3z"/>
	<path class="st1" d="M400.2,86.5c-0.2,1.8-0.4,5-1.1,8.1c-2,10.1-8.1,15.6-18.2,16.5c-9.8,0.9-17.5-3.6-21-12.9
		c-3.7-9.8-4.5-20-1.9-30.2c2.3-9.6,8.9-14.8,18.7-15.5c9.2-0.6,16,3.6,19.8,12.4C399.3,71.4,400,78.2,400.2,86.5z M388,86.2
		c-0.6-6.5-0.5-13.1-2.8-19.4c-1.3-3.5-3.9-5.5-7.7-5.5c-3.7,0.1-6.6,1.9-7.4,5.7c-2,10.3-1.3,20.4,2,30.3c1.1,3.4,4,4.9,7.6,4.7
		c3.7-0.2,6.4-2,7.3-5.8C387.9,92.9,388.2,89.6,388,86.2z"/>
	<path class="st1" d="M238.7,91.4c-0.2-1.5,0.5-2.6,1.7-3.4c0.6-0.4,1.2-0.6,1.8-0.9c11.2-4.8,8.2-5.8,16.4,2.8
		c10.5,11,20.8,22.1,31.2,33.1c3.6,3.8,3.5,4.6-1.2,6.8c-6.8,3.2-7,3.4-11.6-2.8c-2.7-3.7-5.3-4.8-9.1-2c-0.4,0.3-0.9,0.5-1.4,0.7
		c-8.7,4-8.7,4-7.2,13.1c0.3,1.9,0.7,3.9-1.5,4.8c-2.7,1.2-5.1,3.4-8.3,3c-1.3-0.2-1.5-1.8-1.7-2.9c-3.1-17.3-6.1-34.5-9.1-51.8
		C238.7,91.7,238.7,91.6,238.7,91.4z M250.7,96.1c-0.4,0.3-0.8,0.6-1.1,0.8c1.2,4.8,2.4,9.6,3.6,14.5c2.1,8.7,2.1,8.7,10.1,4.5
		c0.4-0.2,0.9-0.4,1.4-0.6c0.9-0.5,1.2-1.1,0.5-2C260.3,107.6,255.5,101.8,250.7,96.1z"/>
	<path class="st1" d="M743.8,311.8c3.8,0.1,5.8,1.4,6.6,5.3c1.9,9.6,3.6,8.3-5.9,13.6c-13.7,7.6-27.3,15.2-41,22.8
		c-1.8,1-3.7,3.1-5.6,0.3c-2.2-3.1-2.2-9.6-0.1-11.1c0.3-0.2,0.6-0.3,0.9-0.5c2.7-1.9,7.8-2,8-5.2c0.3-4.5-1.8-9.1-2.8-13.7
		c-0.3-1.5-1.5-1.7-2.7-1.7c-1.9,0-3.7,0-5.6-0.1c-5.4-0.1-8.7-4-8-9.5c0.4-2.8,2.5-2.2,4.2-2.3c8.7,0,17.5,0.7,26.2,0.7
		 M741.2,321.4c-6.9,0-12.7,0-18.5,0c-9.2,0-9.4,0.4-6.3,9c0.7,2,1.5,2.2,3.2,1.4C726.5,328.4,733.3,325.1,741.2,321.4z"/>
	<path class="st1" d="M521.4,710.3c8.3,2,11.8,9.1,16.5,14.6c1.7,2,5.1,4,3.9,6.5c-1.4,2.9-5.6,2.5-8.6,3.3
		c-2.4,0.7-3.5-1.5-4.7-3.1c-2.6-3.5-5.1-7.1-7.8-10.6c-1.5-1.8-3.3-3.5-5.6-4.1c-1.8-0.5-3.9-0.9-5.3,0.5c-1.3,1.2,0,2.8,0.4,4.2
		c1.3,4.4,2.5,8.7,4,13c1.3,3.7,0.4,5.6-3.5,6.6c-3.3,0.8-6,1.9-7.3-2.9c-4.2-14.7-8.6-29.4-13.1-44c-0.9-2.9-0.2-4.4,2.8-5.1
		c5.2-1.3,10.3-3,15.6-4.1c8.2-1.8,13.9,0.6,17.3,6.8C529.4,698.4,528.2,703.7,521.4,710.3z M516.7,701.5c0-4.2-2.9-7.5-6.8-6.9
		c-2.4,0.3-6.2-0.3-6.7,3.3c-0.5,3.7,3.4,11.4,5.1,11.3C513.3,708.8,516.7,705.8,516.7,701.5z"/>
	<path class="st1" d="M193.2,660.2c2.4,9.9-2.3,18.3-4.6,27.2c-0.1,0.5-0.9,1.1-1.4,1.2c-3.3,0.6-9.2-6.6-8.1-9.9
		c1.2-3.7,2.6-7.3,3.9-10.9c0.7-2.1,0.9-4.3,0.9-6.5c0-2.6-1-4.8-3.3-5.8c-2.7-1.2-3.2,1.8-4.3,3.2c-3.1,3.6-6,7.3-8.7,11.1
		c-3.3,4.6-5.6,1-8.3-0.6c-2.9-1.8-2.6-3.6-0.6-6.1c9.6-12,19-24,28.3-36.2c2.2-2.9,4.1-3.3,7-1c3.5,2.9,7.4,5.3,11,8.1
		c6.3,4.9,9,11.1,6.8,16c-4.2,9.4-9.4,11.5-17.2,10.1C194.1,660,193.8,660.1,193.2,660.2z M193.1,652.5c3.7-0.1,7.4-3.3,7.5-6.8
		c0.2-4.5-3.5-6.6-6.7-7.9c-0.8-0.3-8.4,9.3-8.4,10.7C186.4,650.8,189.7,652.6,193.1,652.5z"/>
	<path class="st1" d="M116.1,617.9c-10.2,0.2-15.4-4.1-19.1-10.3c-3.6-6.1-3-12.4,1.1-18.1c6.9-9.6,16-16.3,27.4-19.5
		c8-2.3,15.3,0.7,20.3,7.7c4.7,6.8,4.9,13.6-0.4,20.6C137.3,608.7,127.2,616.1,116.1,617.9z M111.9,608.4c6.7,0.2,25.7-14,27.4-20.5
		c1.4-5.4-3.3-10.3-8.9-8.5c-10.2,3.2-18.6,9.5-24.6,18.2C102.5,602,106.4,608.2,111.9,608.4z"/>
	<path class="st1" d="M491.6,725.9c-0.1,13.9-5.2,20.9-15.9,22.8c-8.9,1.6-16.1-1.5-20.4-9.4c-5.5-10.1-6.9-20.9-4.3-32.1
		c1.8-7.7,7.1-12,14.7-13.4c7.6-1.4,14.1,0.4,18.7,6.9C489.9,708.6,491.3,717.7,491.6,725.9z M480.5,728.9
		c-0.7-7.8-1.3-15.3-4.7-22.3c-1.6-3.2-4.3-5.2-8.2-4.5c-3.7,0.6-5.9,2.9-6.3,6.3c-1.1,9.7,0.4,19.2,4.5,28.1
		c1.5,3.3,4.6,4.3,8.1,3.7c3.6-0.6,5.7-2.8,6.2-6.4C480.4,732.1,480.4,730.4,480.5,728.9z"/>
	<path class="st1" d="M692.8,627.1c-12.3-0.2-31-14.7-34.2-26.5c-3.2-12,8-24.7,20.6-22.3c14,2.7,24.6,11.1,30.9,23.7
		C715.9,613.3,705.7,627.2,692.8,627.1z M701.9,609.7c-0.1-0.3-0.1-1.2-0.3-2c-1.9-6.2-19.5-19.9-26-20.3c-5.7-0.3-10,5.4-7.1,10.1
		c5.7,9.3,14,15.9,24.3,19.5C697.4,618.7,701.8,614.9,701.9,609.7z"/>
	<path class="st1" d="M631.3,687.2c-2.8-0.3-4.4-2-5.7-3.6c-3.3-3.8-6.5-4-10.1-0.7c-0.2,0.2-0.6,0.4-0.9,0.5
		c-7.3,4.6-7.3,4.6-4.6,12.5c0.6,1.8,1.5,3.7-0.5,5c-2.3,1.6-4.4,3.9-7.4,3.9c-1.5,0-1.9-1.8-2.3-3.1c-5-15.3-10-30.7-15-46
		c-0.8-2.5-0.3-4.3,1.9-5.5c0.6-0.3,1.1-0.7,1.7-1.1c8-4.6,5.7-5.6,13.7,0.8c10.9,8.7,21.8,17.5,32.6,26.3c1.8,1.5,5.5,2.7,4.3,5.4
		C637.8,684.6,633.9,685.5,631.3,687.2z M612.8,672.7c-5-5.5-10.9-10-17.5-15.5c1,5.5,3.3,8.7,4.7,12.4
		C603.8,679.7,603.9,679.7,612.8,672.7z"/>
	<path class="st1" d="M146.3,652.4c-7.7,0.1-16.8-6.4-20-13.9c-3.1-7.6,0-13.4,5.3-18.6c7.9-7.8,16-15.4,23.9-23.3
		c4.2-4.3,5.6,0.3,8,2c3,2.2,1.8,4-0.4,6c-8.2,7.8-16.3,15.6-24.2,23.7c-5,5.1-4.2,10.1,1.5,13.2c4.3,2.3,7.5,0.2,10.4-2.6
		c7.8-7.5,15.5-15,23.2-22.5c3.6-3.5,9.1-2.1,10.7,2.7c0.5,1.4-0.2,2.3-1,3.1c-9.6,9.4-19,18.9-29.4,27.5
		C151.8,651.7,148.9,652.3,146.3,652.4z"/>
	<path class="st1" d="M655.7,161.5c8,0.1,17.6,7.8,19.8,15.8c1.1,4-2.5,4.1-4.5,5.5c-2.4,1.7-3.6,0.3-4.5-1.9
		c-1-2.5-2.4-4.8-4.4-6.7c-2.3-2.2-4.9-2.9-7.9-1.5c-3.2,1.5-3.7,4.2-3,7.2c1,4.3,2.3,8.5,3.2,12.7c1.7,7.8-1.8,13.4-8.1,17.5
		c-6.2,3.9-12.4,3.7-18.6-0.1c-5.8-3.6-9.4-9.1-12.6-14.9c-2.4-4.5,1.4-5.3,4.1-6.9c2.9-1.8,4.3-0.2,5.3,2.3
		c1.4,3.3,3.1,6.4,5.7,8.8c2.7,2.5,5.7,3.8,9.2,1.7c3.3-2,4-5.2,3.1-8.8c-0.9-3.4-2-6.8-2.9-10.2
		C636.9,171.4,644.8,161.4,655.7,161.5z"/>
	<path class="st1" d="M86.5,229.3c2,0.7,4.4,1.4,6,3.1s-0.2,3.5-0.9,5.1c-0.6,1.4-1.5,2.7-2.1,4c-1.2,2.7-4.7,6.2-3.4,7.9
		c2.2,2.7,6.5,3.8,10,5.5c2,1,2.2-0.8,2.7-1.9c1.7-3.1,3.4-6.2,5-9.4c1.7-3.4,3.9-2.2,6.3-1c2.5,1.2,3.9,2.7,2.1,5.5
		c-0.3,0.4-0.4,0.9-0.6,1.4c-1.5,3.5-5.8,6.9-4.3,10.1c1.2,2.6,6,3.7,9.3,5.4c3.1,1.6,6.2,3.1,9.4,4.6c2.6,1.2,3.6,2.9,1.8,5.4
		c-1.7,2.4-2.1,7.2-7,4.8c-13.2-6.3-26.3-12.7-39.4-19.1c-1.4-0.7-2.6-1.6-4-2.1c-6.4-2.6-6.5-2.8-3.5-8.7
		c3.1-5.9,6.2-11.9,9.3-17.8C83.8,230.8,84.4,229.4,86.5,229.3z"/>
	<path class="st1" d="M521.9,83.4c-0.8-0.2-1.9-0.6-3.1-0.9c-6.9-2-6.9-2-9.3,5c-3.7,11-7.6,21.9-10.8,33.1
		c-1.7,5.8-4.9,3.7-8.5,2.9c-4.3-1-4.1-3.4-2.9-6.8c4.1-11.9,7.9-23.9,12.1-35.8c1.1-3.2,0.4-4.6-2.8-5.2c-1.3-0.2-2.6-0.8-3.9-1.1
		c-3-0.7-5.6-1.6-4.3-5.7c1.1-3.6,2.4-6,7.1-4.4c9.6,3.2,19.2,6.1,28.9,9c2.8,0.8,4,2.3,2.8,5.2C526.2,80.9,526.3,84.2,521.9,83.4z"
		/>
	<path class="st1" d="M237.2,715c-6.3-0.3-12.7-4.5-18.5-9.8c-3.3-3.1,0.6-4.6,1.8-6.6c1.4-2.3,3.1-2,4.9-0.3c2.7,2.5,5.4,5.1,9,6.3
		c3,1,6,1.4,8.3-1.5c2.1-2.8,2-5.7,0.1-8.4c-2.2-3-4.6-5.8-6.8-8.8c-4.5-6-4.7-11.1-0.8-17.3c3.5-5.5,9.6-8,16.1-6.8
		c5.3,1,9.6,3.8,13.7,7.1c3,2.5,1,4.2-0.5,6.3c-1.9,2.4-3.5,2.8-5.6,0.4c-1.9-2.1-4.3-3.7-7.2-4.5c-2.8-0.8-5,0-6.7,2.2
		c-1.7,2.2-1.4,4.4,0.2,6.5c2.8,3.8,6,7.4,8.3,11.4C259.6,702.1,251.7,715.2,237.2,715z"/>
	<path class="st1" d="M311.3,122.4c-7-0.1-12.6-2.4-16.7-7.3c-7.8-9.3-11.7-20.1-9.9-32.3c2.1-13.9,13.9-19.3,25.3-19.1
		c2.2,0.1,4.6,0.7,4.1,3.8c-0.5,2.7-0.2,5.6-4.6,5.7c-10.5,0.4-14.8,5.9-13.2,16.3c0.8,5,2.3,9.8,4.7,14.3
		c4.5,8.3,11.7,10.7,19.4,5.4c4.8-3.3,6.5,0.1,8.3,2.7c2.4,3.5-1.1,4.6-3.2,6C321.1,121,316,122.2,311.3,122.4z"/>
	<path class="st1" d="M711.4,261.2c17.1-0.3,27.8,9.3,28,22c0,2.5,0.1,5-3.5,4.7c-2.6-0.2-5.7,0.9-6.3-3.7
		c-1.4-9.6-6.1-12.9-15.8-11.6c-6.6,0.9-12.7,3.4-18.2,7.1c-6.8,4.6-8,11.6-2.6,17.8c3.3,3.8,1.5,5.6-1.2,8.1
		c-3.5,3.2-5.1,0.3-6.9-1.8c-9.9-11.8-7.9-25.9,4.9-34.3C697.3,264.5,705.6,261.3,711.4,261.2z"/>
	<path class="st1" d="M651.7,238.6c-3.5-0.9-4.6-4-6.2-6.4c-1.6-2.4,0.7-3.5,2.4-4.7c11.2-7.6,22.4-15.3,33.7-22.7
		c2.1-1.4,2.7-2.1,0.8-4c-1-1-1.7-2.5-2.5-3.7c-3.6-5.2-2.8-7.5,3.3-9.4c1.6-0.5,2.7-0.1,3.8,1.4c5.9,8.3,12.1,16.4,18,24.7
		c1.8,2.5,1.5,4.7-1.7,6.6c-2.8,1.6-4.7,2.7-7.1-0.6c-5.2-7.1-5.3-7-12.5-2.2c-9.5,6.3-19.1,12.7-28.6,19
		C654,237.3,652.8,238,651.7,238.6z"/>
	<path class="st1" d="M417.7,724.8c0,0-0.4-14.4-0.6-21.6c-0.1-3.7,1.2-5.2,4.9-5.2c6.9-0.1,13.8-0.3,20.7-0.7
		c3.3-0.2,4.5,1.1,4.5,4.4c0,3-0.6,4.9-4.1,4.9c-3.5,0-7.1,0.4-10.6,0.3c-3.1-0.1-4,1.1-3.9,4.1c0.6,10.2-1,8.6,8.7,8.3
		c1.5-0.1,3-0.1,4.5-0.2c3.2-0.2,4,1.4,4.1,4.3c0,2.7-0.5,4.7-3.8,4.6c-0.3,0-0.7,0-1,0c-11.8,0.6-11.8,0.6-11.4,12.6
		c0.1,1.7,0.1,3.4,0.2,5.1c0.3,6.8-0.2,7.1-6.8,7.1c-3,0-4.3-1.1-4.3-4.1L417.7,724.8z"/>
	<path class="st1" d="M676.2,264.3c0.8,3.3-2.2,3.7-4,4.9c-2,1.2-3.5,0.2-4.5-1.7c-2.2-4-4.5-7.9-6.7-11.9c-1-1.7-2-3.5,0.2-4.8
		c2-1.1,4.3-3.8,6.6-1c1.7,2.1,3,1.5,4.7,0.6c10.3-5.4,20.6-10.8,30.8-16.2c1-0.5,2.9-0.8,1.9-2.8c-2-4,1.5-4.5,3.7-5.7
		c2.9-1.6,3.9,1,4.9,2.8c2.2,3.6,4,7.4,6.2,11c1.3,2.1,1.5,3.8-0.9,5c-2,1-4.2,3.6-6.3,0.3c-1.2-2-2.3-1.2-3.7-0.5
		c-10.4,5.5-20.8,10.9-31.3,16.3C676.2,261.4,674.5,262.1,676.2,264.3z"/>
	<path class="st1" d="M267.8,731c-2.5-1-5.6-1.5-7.4-3.9c-1.4-1.9,0.9-3.6,1.6-5.2c5.1-10.6,10.3-21.2,15.7-31.6
		c1.7-3.2,1.8-5.2-2.1-6.2c-1-0.2-1.8-0.9-2.7-1.3c-2.9-1.2-5.1-2.3-3-6.2c1.8-3.4,3.3-4.9,7.3-2.9c8.1,4,16.4,7.7,24.8,11.2
		c3.6,1.5,3.5,3.6,1.8,6.3c-1.3,2.1-1.6,5.3-5.9,3.1c-8-4.1-8.1-3.8-12.2,4.4c-4.7,9.5-9.4,19-14.1,28.5
		C270.8,728.9,270.3,730.9,267.8,731z"/>
	<path class="st1" d="M657,666.9c-1.3,2.9-3.9,4.3-6.2,5.9c-2.2,1.4-3.4-0.7-4.5-2c-7.3-8.5-14.6-17-21.8-25.6
		c-4.6-5.5-4.5-5.5-10.3-1.2c-2.7,2-5.1,4.2-8.2,0c-2.3-3.2-2.5-4.5,1-7c7.4-5.3,14.5-11,21.4-16.9c3.2-2.6,5-2,7.4,1
		c2.5,3.1,1.2,4.3-1.4,6.3c-6.7,5.1-6.5,5.1-1,11.4c7.4,8.5,14.7,17.1,22,25.7C656.1,665.1,656.5,666,657,666.9z"/>
	<path class="st1" d="M112,548.4c-1.4-2.2-2.6-4.4-4.1-6.5c-2-2.7-1.5-4.5,1.5-6c2.6-1.4,4.8-3.2,7.1,0.6c5,8.2,10.2,16.3,15.4,24.3
		c1.7,2.6,0.8,4.1-1.5,5.2c-2.2,1.1-4.3,3.9-6.9,0.5c-2-2.6-2.5-7.4-6-7.3c-3,0.1-5.9,3-8.8,4.7c-8.7,5.1-17.5,10-26.1,15.4
		c-4.6,2.9-5.7-0.5-7.7-3.2c-2.3-3.2-0.8-4.6,2-6.2c10.6-6.1,21.2-12.4,31.8-18.7C110,550.5,111.5,550,112,548.4z"/>
	<path class="st1" d="M337.5,116.1c-2,0.2-3.4-0.5-3.7-2.5c-0.3-2-1.7-4.7,1.3-5.6c2.6-0.8,2.5-2.1,2.1-4.1
		c-2.1-10.7-4.1-21.5-6.2-32.3c-0.4-1.9-0.3-3.8-3.5-3.7c-3.3,0.1-2.9-3-3.2-5.3c-0.3-2.6,1.5-3.1,3.4-3.4c4.5-0.7,9-1.5,13.5-2.3
		c2.1-0.4,4.2-0.7,4.7,2.2c0.4,2.3,2.2,5.2-1.9,6.1c-2.3,0.5-1.7,2.1-1.4,3.6c2.1,11.1,4.2,22.2,6.4,33.2c0.3,1.3,0.2,3.1,2.6,2.9
		c4.2-0.4,3.8,3.1,4.1,5.6c0.3,2.9-2.1,2.9-4.1,3.3C346.8,114.5,342.2,115.3,337.5,116.1z"/>
	<path class="st1" d="M98,355.6c-1.4-1-6.4,1.2-4.5-4.5c0.5-1.4-1.5-1.5-2.6-1.7c-11.8-2.1-23.5-4.2-35.3-6.3
		c-1.3-0.2-2.7-0.7-3.3,1.2c-1.3,4.5-4.6,2.4-7.1,1.8c-2.9-0.7-1.7-3.1-1.4-5.1c0.8-4.1,1.6-8.3,2.3-12.4c0.4-2.1,1.3-3.7,3.6-3.1
		c2.1,0.5,5.4-0.2,5.3,3.3c-0.1,2.7,1.3,2.9,3.3,3.3c11.3,2,22.5,4,33.8,6.1c2.1,0.4,3.7,0.7,4.7-2.1c1-2.8,3.6-1.4,5.7-1.1
		c2.3,0.4,3,1.8,2.6,4c-0.9,4.6-1.8,9.3-2.8,13.9C102,354.8,101,356.4,98,355.6z"/>
	<path class="st1" d="M350.5,691.5c4.8,0.9,9.6,1.7,14.4,2.7c1.9,0.4,3.2,1.4,2.6,3.5c-0.5,1.8-0.1,4.6-3,4.5
		c-3-0.2-3.2,1.7-3.6,3.7c-2,9.9-4,19.8-6,29.7c-0.3,1.7-1.2,3.6,1.6,4.4c3.2,1,1.6,3.6,1.2,5.5c-0.4,2.3-2.1,2.6-4.2,2.1
		c-4.4-1-8.9-1.7-13.4-2.4c-2.1-0.3-3-1.4-2.7-3.4c0.3-1.9,0-4.8,2.7-4.6c3.3,0.2,3.4-1.7,3.8-3.9c1.9-9.8,3.9-19.5,5.8-29.2
		c0.4-2.1,1.4-4-2-5c-2.3-0.7-1.3-3.1-0.9-4.9C347.3,692.2,348.4,691.2,350.5,691.5z"/>
	<path class="st1" d="M654,606.5c-4.5,5.1,1.3,6.6,3.4,8.8c6.1,6.5,12.7,12.5,19.1,18.7c1.1,1,1.9,3.1,4.1,1.4
		c3.1-2.3,4.5,0.5,6.2,2.2c1.9,2-0.4,3.1-1.1,4.6c-2,4.8-7.4,5.7-10.3,9.4c-1.2,1.5-2.8,0.9-3.9-0.4c-1.2-1.4-4-2.5-2.2-4.8
		c1.9-2.4,0.5-3.4-1-4.9c-7.2-7-14.4-14.1-21.6-21.2c-1.6-1.5-2.7-3.6-5.7-1.3c-2.3,1.7-3.7-1.4-5.2-2.8c-1.5-1.4-0.6-2.7,0.6-3.9
		c3.4-3.2,6.9-6.4,10.3-9.7c1-1,2.2-1.9,3.5-0.8C651.8,603.2,653.4,604.4,654,606.5z"/>
	<path class="st1" d="M220.8,654.9c-1.8-1.6-3.8-3.2-1.8-6.1c1.6-2.3,2.9-3.5,5.7-1.7c3.4,2.2,6.9,4.2,10.5,6.1
		c2.2,1.2,2.9,2.6,2,4.9c-0.9,2.3-2.2,4.5-5.1,3.1c-2-1-2.5,0.2-3.4,1.5c-5.9,9.4-11.9,18.7-17.9,28c-0.7,1.1-1.1,2.5,0.1,3.1
		c4.9,2.2,0.8,4.9-0.1,6.5c-1.4,2.5-3.6,0.7-5.5-0.5c-3.1-2-6.4-3.6-9.5-5.6c-1.6-1-4-2-2.2-4.6c1.2-1.8,1.8-4.9,5.1-3.3
		c1.6,0.8,2.4,0.3,3.3-1.1c5.9-9.4,11.9-18.8,17.8-28.2C220,656.3,220.3,655.7,220.8,654.9z"/>
	<path class="st1" d="M606.6,188.4c-2.8-1.2-4.9-3.2-6.6-5.4c-1.7-2.2,0.7-3.6,2-5c5.6-6,11.3-12,16.9-18c1-1.1,3.1-2.3,0.8-4
		c-3.2-2.4-1.2-4.2,0.6-6.1c2.3-2.7,4-1,5.9,0.6c9.5,7.8,9.6,7.9,1.2,16.9c-5.7,6.2-11.5,12.3-17.3,18.3
		C609.1,186.8,608.2,188,606.6,188.4z"/>
	<path class="st1" d="M633.1,139.1c5.1,1,10.2,1.9,15.4,2.9c3.2,0.6,2.2,2.8,1.7,4.7c-0.6,2.1-0.3,5.4-4,4.4
		c-5.2-1.4-10.3-3.2-15.4-4.9c-2.2-0.7-1.9-2.4-1.4-4.1C629.9,140.2,630.6,138.7,633.1,139.1z"/>
	<path class="st1" d="M388.8,40.1c0,1.8-0.9,2.3-1.8,2.7c-4.5,2.3-9,4.5-13.5,6.8c-2.4,1.2-3.6,0.1-4.9-1.9
		c-1.5-2.2-0.9-3.6,1.1-4.9c3.5-2.3,6.9-4.7,10.5-7c1.3-0.9,2.8-2.8,4.4-1.4C386.4,36.1,387.6,38.4,388.8,40.1z"/>
	<path class="st1" d="M211.6,148c0.5,0.7,0.7,1.3-0.2,1.9c-0.2-0.6-0.4-1.1-0.6-1.7C211.1,148.1,211.4,148,211.6,148z"/>
	<path class="st1" d="M186.7,140.1c-0.3-0.2-0.5-0.4-0.8-0.5c0.5-0.5,0.9-0.4,1.1,0.2L186.7,140.1z"/>
	<path class="st1" d="M96.8,294.5c0.8,0.2,2.1-0.1,2,0.9c-0.1,0.6-1.6,0.5-2.4-0.2C96.6,295,96.7,294.8,96.8,294.5z"/>
	<path class="st1" d="M726.8,565.3c0.2,0.1,0.4,0.2,0.6,0.3c0-0.2,0-0.5,0-0.7c-0.2,0.2-0.3,0.4-0.5,0.6
		C726.9,565.5,726.8,565.3,726.8,565.3z"/>
</g>
</svg>
